<mxfile host="app.diagrams.net" agent="Mozilla/5.0 (X11; Linux x86_64) AppleWebKit/537.36 (KHTML, like Gecko) Chrome/133.0.0.0 Safari/537.36" version="26.2.14">
  <diagram name="Page-1" id="4zQcCn-Ic5G3MCy9d1Cx">
    <mxGraphModel dx="934" dy="550" grid="1" gridSize="10" guides="1" tooltips="1" connect="1" arrows="1" fold="1" page="1" pageScale="1" pageWidth="850" pageHeight="1100" math="0" shadow="0">
      <root>
        <mxCell id="0" />
        <mxCell id="1" parent="0" />
        <mxCell id="bzutJzX1AavvvsLKq-v1-1" value="&lt;font style=&quot;font-size: 18px;&quot;&gt;Label&#39;s text&lt;/font&gt;" style="rounded=1;whiteSpace=wrap;html=1;fillColor=#e1d5e7;strokeColor=#9673a6;strokeWidth=4;align=left;" parent="1" vertex="1">
          <mxGeometry x="120" y="39.58" width="170" height="30" as="geometry" />
        </mxCell>
        <mxCell id="bzutJzX1AavvvsLKq-v1-2" value="&lt;font style=&quot;font-size: 24px;&quot;&gt;&amp;nbsp; &amp;nbsp;Entity&#39;s text&lt;/font&gt;" style="rounded=1;whiteSpace=wrap;html=1;fillColor=#e1d5e7;strokeColor=#9673a6;strokeWidth=4;fontSize=28;align=left;" parent="1" vertex="1">
          <mxGeometry x="120" y="69.58" width="170" height="60.42" as="geometry" />
        </mxCell>
        <mxCell id="bzutJzX1AavvvsLKq-v1-4" value="" style="endArrow=baseDash;html=1;rounded=0;startArrow=baseDash;startFill=0;endFill=0;fontSize=14;strokeWidth=2;" parent="1" edge="1">
          <mxGeometry width="50" height="50" relative="1" as="geometry">
            <mxPoint x="310" y="129.58" as="sourcePoint" />
            <mxPoint x="310" y="39.58" as="targetPoint" />
          </mxGeometry>
        </mxCell>
        <mxCell id="bzutJzX1AavvvsLKq-v1-7" value="height" style="edgeLabel;html=1;align=center;verticalAlign=middle;resizable=0;points=[];fontSize=18;fontFamily=Lucida Console;fontStyle=2" parent="bzutJzX1AavvvsLKq-v1-4" vertex="1" connectable="0">
          <mxGeometry x="-0.025" y="-2" relative="1" as="geometry">
            <mxPoint x="28" y="-1" as="offset" />
          </mxGeometry>
        </mxCell>
        <mxCell id="bzutJzX1AavvvsLKq-v1-5" value="" style="endArrow=baseDash;html=1;rounded=0;startArrow=baseDash;startFill=0;endFill=0;fontSize=14;fontStyle=1;strokeWidth=2;" parent="1" edge="1">
          <mxGeometry width="50" height="50" relative="1" as="geometry">
            <mxPoint x="145" y="140" as="sourcePoint" />
            <mxPoint x="265" y="140" as="targetPoint" />
          </mxGeometry>
        </mxCell>
        <mxCell id="bzutJzX1AavvvsLKq-v1-6" value="textWidth" style="edgeLabel;html=1;align=center;verticalAlign=middle;resizable=0;points=[];fontSize=18;fontFamily=Lucida Console;fontStyle=2" parent="bzutJzX1AavvvsLKq-v1-5" vertex="1" connectable="0">
          <mxGeometry x="0.1667" y="1" relative="1" as="geometry">
            <mxPoint x="-10" y="14" as="offset" />
          </mxGeometry>
        </mxCell>
        <mxCell id="bzutJzX1AavvvsLKq-v1-30" value="&lt;font style=&quot;font-size: 18px;&quot;&gt;Entity Label&#39;s text&amp;nbsp; &amp;nbsp; &amp;nbsp; &amp;nbsp; &amp;nbsp; &amp;nbsp; &amp;nbsp; &amp;nbsp; &amp;nbsp; &amp;nbsp; &amp;nbsp; &amp;nbsp; &amp;nbsp; &amp;nbsp; &amp;nbsp; &amp;nbsp; &amp;nbsp; &amp;nbsp; &amp;nbsp; &amp;nbsp; &amp;nbsp; &amp;nbsp; &amp;nbsp; &amp;nbsp; &amp;nbsp; &amp;nbsp; &amp;nbsp;&lt;/font&gt;" style="rounded=1;whiteSpace=wrap;html=1;fillColor=#e1d5e7;strokeColor=#9673a6;strokeWidth=4;align=left;" parent="1" vertex="1">
          <mxGeometry x="440" y="39.58000000000001" width="440" height="30" as="geometry" />
        </mxCell>
        <mxCell id="bzutJzX1AavvvsLKq-v1-31" value="&lt;font style=&quot;font-size: 24px;&quot;&gt;Entity&#39;s text&amp;nbsp; &amp;nbsp; &amp;nbsp; &amp;nbsp; &amp;nbsp; &amp;nbsp; &amp;nbsp; &amp;nbsp; &amp;nbsp; &amp;nbsp; &amp;nbsp; &amp;nbsp; &amp;nbsp; &amp;nbsp; &amp;nbsp; &amp;nbsp; &amp;nbsp; &amp;nbsp; &amp;nbsp;Ent..&amp;nbsp;&lt;/font&gt;" style="rounded=1;whiteSpace=wrap;html=1;fillColor=#e1d5e7;strokeColor=#9673a6;strokeWidth=4;align=left;" parent="1" vertex="1">
          <mxGeometry x="440" y="69.58" width="440" height="70.42" as="geometry" />
        </mxCell>
        <mxCell id="bzutJzX1AavvvsLKq-v1-32" value="" style="endArrow=baseDash;html=1;rounded=0;startArrow=baseDash;startFill=0;endFill=0;fontSize=14;strokeWidth=2;" parent="1" edge="1">
          <mxGeometry width="50" height="50" relative="1" as="geometry">
            <mxPoint x="440" y="160" as="sourcePoint" />
            <mxPoint x="880" y="160" as="targetPoint" />
          </mxGeometry>
        </mxCell>
        <mxCell id="bzutJzX1AavvvsLKq-v1-33" value="textWidth" style="edgeLabel;html=1;align=center;verticalAlign=middle;resizable=0;points=[];fontSize=18;fontStyle=2;fontFamily=Lucida Console;" parent="bzutJzX1AavvvsLKq-v1-32" vertex="1" connectable="0">
          <mxGeometry x="0.1667" y="1" relative="1" as="geometry">
            <mxPoint as="offset" />
          </mxGeometry>
        </mxCell>
        <mxCell id="bzutJzX1AavvvsLKq-v1-34" value="&lt;font style=&quot;font-size: 18px;&quot;&gt;Sub-entity Label&#39;s text&lt;/font&gt;" style="rounded=1;whiteSpace=wrap;html=1;fillColor=#d5e8d4;strokeColor=#82b366;strokeWidth=4;" parent="1" vertex="1">
          <mxGeometry x="610" y="39.58000000000001" width="190" height="30" as="geometry" />
        </mxCell>
        <mxCell id="bzutJzX1AavvvsLKq-v1-35" value="&lt;div&gt;&lt;font style=&quot;font-size: 24px;&quot;&gt;&lt;br&gt;&lt;/font&gt;&lt;/div&gt;&lt;font style=&quot;font-size: 24px;&quot;&gt;Sub-entity&#39;s text&lt;/font&gt;" style="rounded=1;whiteSpace=wrap;html=1;fillColor=#d5e8d4;strokeColor=#82b366;strokeWidth=4;align=left;" parent="1" vertex="1">
          <mxGeometry x="610" y="69.58000000000001" width="190" height="60" as="geometry" />
        </mxCell>
        <mxCell id="bzutJzX1AavvvsLKq-v1-56" value="(a)" style="text;html=1;align=center;verticalAlign=middle;whiteSpace=wrap;rounded=0;fontSize=28;" parent="1" vertex="1">
          <mxGeometry x="179.79" y="220" width="60" height="30" as="geometry" />
        </mxCell>
        <mxCell id="bzutJzX1AavvvsLKq-v1-57" value="(b)" style="text;html=1;align=center;verticalAlign=middle;whiteSpace=wrap;rounded=0;fontSize=28;" parent="1" vertex="1">
          <mxGeometry x="630" y="220" width="60" height="30" as="geometry" />
        </mxCell>
        <mxCell id="WtzTWcPqUnsuf2wO-yMu-1" value="" style="endArrow=baseDash;html=1;rounded=0;startArrow=baseDash;startFill=0;endFill=0;fontSize=14;strokeWidth=2;" edge="1" parent="1">
          <mxGeometry width="50" height="50" relative="1" as="geometry">
            <mxPoint x="100" y="69.58" as="sourcePoint" />
            <mxPoint x="100" y="39.16" as="targetPoint" />
          </mxGeometry>
        </mxCell>
        <mxCell id="WtzTWcPqUnsuf2wO-yMu-2" value="height / 3" style="edgeLabel;html=1;align=center;verticalAlign=middle;resizable=0;points=[];fontSize=18;fontFamily=Lucida Console;fontStyle=2" vertex="1" connectable="0" parent="WtzTWcPqUnsuf2wO-yMu-1">
          <mxGeometry x="-0.025" y="-2" relative="1" as="geometry">
            <mxPoint x="-42" as="offset" />
          </mxGeometry>
        </mxCell>
        <mxCell id="WtzTWcPqUnsuf2wO-yMu-3" value="" style="endArrow=baseDash;html=1;rounded=0;startArrow=baseDash;startFill=0;endFill=0;fontSize=14;fontStyle=1;strokeWidth=2;strokeColor=#4D4D4D;" edge="1" parent="1">
          <mxGeometry width="50" height="50" relative="1" as="geometry">
            <mxPoint x="267" y="99.58" as="sourcePoint" />
            <mxPoint x="287" y="99.99" as="targetPoint" />
            <Array as="points" />
          </mxGeometry>
        </mxCell>
        <mxCell id="WtzTWcPqUnsuf2wO-yMu-4" value="padding = 10 pixels" style="edgeLabel;html=1;align=center;verticalAlign=middle;resizable=0;points=[];fontSize=18;fontFamily=Lucida Console;fontStyle=2" vertex="1" connectable="0" parent="WtzTWcPqUnsuf2wO-yMu-3">
          <mxGeometry x="0.1667" y="1" relative="1" as="geometry">
            <mxPoint x="1" y="81" as="offset" />
          </mxGeometry>
        </mxCell>
        <mxCell id="WtzTWcPqUnsuf2wO-yMu-5" value="" style="endArrow=classic;html=1;rounded=0;dashed=1;" edge="1" parent="1">
          <mxGeometry width="50" height="50" relative="1" as="geometry">
            <mxPoint x="280" y="170" as="sourcePoint" />
            <mxPoint x="280" y="100" as="targetPoint" />
          </mxGeometry>
        </mxCell>
        <mxCell id="WtzTWcPqUnsuf2wO-yMu-6" value="" style="endArrow=baseDash;html=1;rounded=0;startArrow=baseDash;startFill=0;endFill=0;fontSize=14;fontStyle=1;strokeWidth=2;entryX=1;entryY=0.5;entryDx=0;entryDy=0;strokeColor=#4D4D4D;fillColor=#f8cecc;" edge="1" parent="1">
          <mxGeometry width="50" height="50" relative="1" as="geometry">
            <mxPoint x="122" y="99.51" as="sourcePoint" />
            <mxPoint x="142" y="100.06" as="targetPoint" />
          </mxGeometry>
        </mxCell>
      </root>
    </mxGraphModel>
  </diagram>
</mxfile>
